<svg width="114" height="110" viewBox="0 0 114 110" fill="none" xmlns="http://www.w3.org/2000/svg">
<g clip-path="url(#clip0_579_3157)">
<path d="M97.9224 102.353C99.3853 102.353 100.571 101.214 100.571 99.8093C100.571 98.4043 99.3853 97.2654 97.9224 97.2654C96.4594 97.2654 95.2734 98.4043 95.2734 99.8093C95.2734 101.214 96.4594 102.353 97.9224 102.353Z" fill="#99EAD7"/>
<path d="M20.592 8.70897C23.0952 8.70897 25.1244 6.7594 25.1244 4.35448C25.1244 1.94957 23.0952 0 20.592 0C18.0888 0 16.0596 1.94957 16.0596 4.35448C16.0596 6.7594 18.0888 8.70897 20.592 8.70897Z" fill="#99EAD7"/>
<path d="M114 26.2305C114 15.3039 104.782 6.44824 93.4078 6.44824C83.7638 6.44824 75.6735 12.8181 73.435 21.4158C71.6699 20.943 69.8141 20.685 67.8929 20.685C57.2896 20.685 48.5622 28.385 47.4291 38.2825C44.9589 37.2761 42.2445 36.7197 39.3916 36.7197C31.266 36.7197 24.2408 41.2436 20.8919 47.8133C20.7911 47.8133 20.6929 47.8057 20.5922 47.8057C9.2184 47.8032 0 56.6588 0 67.5855C0 78.5121 9.2184 87.3678 20.5922 87.3678C21.2746 87.3678 21.9469 87.3349 22.6117 87.2717C22.4631 88.2326 22.3825 89.2138 22.3825 90.2151C22.3825 101.142 31.6009 109.997 42.9747 109.997C54.3485 109.997 63.5669 101.139 63.5669 90.2151C63.5669 82.3078 58.7374 75.4853 51.7575 72.3193C56.1842 69.123 59.2209 64.2501 59.8579 58.6843C62.3281 59.6908 65.0425 60.2471 67.8954 60.2471C69.5271 60.2471 71.1134 60.06 72.6368 59.7135C75.0012 68.1342 83.0034 74.3322 92.5164 74.3322C103.888 74.3322 113.109 65.474 113.109 54.5499C113.109 49.2117 110.903 44.3692 107.325 40.8112C111.429 37.1951 114.003 32.0011 114.003 26.228L114 26.2305Z" fill="#99EAD7"/>
<path d="M68.3031 98.0062C86.7321 98.0062 101.672 83.0029 101.672 64.4954C101.672 45.9879 86.7321 30.9846 68.3031 30.9846C49.8742 30.9846 34.9346 45.9879 34.9346 64.4954C34.9346 83.0029 49.8742 98.0062 68.3031 98.0062Z" fill="#E52B13"/>
<path opacity="0.2" d="M74.8352 64.776L80.7298 58.8563C82.4572 57.1215 82.4572 54.3121 80.7298 52.5774C79.0025 50.8427 76.205 50.8427 74.4776 52.5774L68.583 58.4972L62.6883 52.5774C60.961 50.8427 58.1635 50.8427 56.4361 52.5774C54.7088 54.3121 54.7088 57.1215 56.4361 58.8563L62.3308 64.776L56.4361 70.6958C54.7088 72.4305 54.7088 75.2399 56.4361 76.9746C58.1635 78.7094 60.961 78.7094 62.6883 76.9746L68.583 71.0549L74.4776 76.9746C76.205 78.7094 79.0025 78.7094 80.7298 76.9746C82.4572 75.2399 82.4572 72.4305 80.7298 70.6958L74.8352 64.776Z" fill="black"/>
<path d="M74.2756 64.2147L80.1702 58.295C81.8976 56.5603 81.8976 53.7508 80.1702 52.0161C78.4429 50.2814 75.6454 50.2814 73.918 52.0161L68.0234 57.9359L62.1288 52.0161C60.4014 50.2814 57.6039 50.2814 55.8766 52.0161C54.1492 53.7508 54.1492 56.5603 55.8766 58.295L61.7712 64.2147L55.8766 70.1345C54.1492 71.8692 54.1492 74.6786 55.8766 76.4134C57.6039 78.1481 60.4014 78.1481 62.1288 76.4134L68.0234 70.4936L73.918 76.4134C75.6454 78.1481 78.4429 78.1481 80.1702 76.4134C81.8976 74.6786 81.8976 71.8692 80.1702 70.1345L74.2756 64.2147Z" fill="white"/>
<path d="M48.7735 41.2487C42.9771 45.5425 37.1832 49.8363 31.3867 54.1301C35.2997 47.4769 39.2101 40.8213 43.1231 34.1682L48.7735 41.2487Z" fill="#1C7399"/>
<path d="M77.3852 5.1662L9.0542 23.1152C5.98476 23.9218 6.02253 28.3117 9.10456 29.0653L41.4458 36.9777L58.3542 54.6814C60.2527 56.669 63.5689 55.9559 64.4905 53.3639L80.4395 8.51172C81.1295 6.56965 79.3719 4.64275 77.3852 5.1662Z" fill="#28A4D9"/>
<path d="M18.7256 31.1718L64.5708 13.635C66.1244 13.0408 67.323 15.0739 66.059 16.1562L41.8534 36.864L31.9955 53.3185C29.8753 56.8562 24.5472 56.0192 23.6055 51.9985L18.7256 31.1693V31.1718Z" fill="#2391BF"/>
<path d="M21.9181 42.3097L2.44268 53.6017C0.818021 54.5437 0.261373 56.63 1.19937 58.2616L1.20063 58.2638C2.13862 59.8954 4.21607 60.4544 5.84072 59.5124L25.3161 48.2203C26.9408 47.2784 27.4974 45.1921 26.5594 43.5605L26.5582 43.5583C25.6202 41.9267 23.5427 41.3677 21.9181 42.3097Z" fill="#28A4D9"/>
<path d="M17.4161 27.4074L8.20337 30.478C6.42287 31.0714 5.45852 33.002 6.04943 34.7901L6.05023 34.7925C6.64114 36.5806 8.56354 37.5491 10.344 36.9556L19.5568 33.885C21.3373 33.2916 22.3017 31.361 21.7108 29.5729L21.71 29.5705C21.119 27.7824 19.1966 26.814 17.4161 27.4074Z" fill="#1C7399"/>
<path d="M40.7818 51.2571L28.2417 63.8506C26.9152 65.1827 26.9152 67.3426 28.2417 68.6748L28.2435 68.6766C29.57 70.0088 31.7208 70.0088 33.0473 68.6766L45.5873 56.0831C46.9139 54.7509 46.9138 52.591 45.5873 51.2589L45.5855 51.2571C44.259 49.9249 42.1083 49.9249 40.7818 51.2571Z" fill="#1C7399"/>
</g>
<defs>
<clipPath id="clip0_579_3157">
<rect width="114" height="110" fill="white"/>
</clipPath>
</defs>
</svg>
